<svg width="102" height="102" viewBox="0 0 102 102" fill="none" xmlns="http://www.w3.org/2000/svg">
    <path fill-rule="evenodd" clip-rule="evenodd"
        d="M51.0004 0C79.1679 0 102.001 23.4088 102.001 52.2904C102.001 75.3884 87.4045 94.9829 67.1522 101.904C64.5665 102.419 63.6485 100.786 63.6485 99.3935C63.6485 97.6697 63.7097 92.0394 63.7097 85.0422C63.7097 80.1665 62.0777 76.9844 60.2468 75.3626C71.6046 74.0671 83.5386 69.645 83.5386 49.561C83.5386 43.849 81.5598 39.1878 78.2856 35.526C78.816 34.2051 80.5653 28.8864 77.7858 21.6851C77.7858 21.6851 73.512 20.284 63.776 27.0466C59.7011 25.8889 55.3354 25.3064 51.0004 25.286C46.6654 25.3064 42.3048 25.8889 38.235 27.0466C28.4888 20.284 24.2048 21.6851 24.2048 21.6851C21.4355 28.8864 23.1848 34.2051 23.7101 35.526C20.4512 39.1878 18.4571 43.849 18.4571 49.561C18.4571 69.594 30.3657 74.084 41.6928 75.4049C40.2342 76.7105 38.9133 79.0137 38.4543 82.395C35.5473 83.7312 28.1624 86.0438 23.6132 78.052C23.6132 78.052 20.9153 73.0278 15.7948 72.6606C15.7948 72.6606 10.8223 72.5946 15.448 75.8382C15.448 75.8382 18.7885 77.4447 21.1091 83.4883C21.1091 83.4883 24.1028 92.8211 38.2911 89.6591C38.3166 94.0298 38.3625 98.1491 38.3625 99.3935C38.3625 100.776 37.4241 102.393 34.8792 101.909C14.6116 94.9981 0 75.3935 0 52.2904C0 23.4088 22.838 0 51.0004 0Z"
        fill="white" />
</svg>