<svg width="139" height="97" viewBox="0 0 139 97" fill="none" xmlns="http://www.w3.org/2000/svg">
    <path
        d="M138.395 2.03771C138.395 2.0167 138.395 1.99803 138.389 1.97702C138.383 1.95601 138.381 1.90349 138.378 1.86732C138.365 1.70528 138.333 1.54541 138.281 1.39115C138.274 1.37014 138.281 1.34797 138.269 1.32696C138.256 1.30595 138.257 1.30945 138.253 1.30012C138.187 1.13059 138.098 0.970811 137.989 0.825121C137.964 0.792443 137.938 0.763266 137.911 0.731755C137.805 0.603075 137.684 0.487847 137.55 0.388635C137.536 0.378131 137.524 0.365294 137.51 0.355957C137.36 0.25717 137.197 0.178685 137.027 0.122544C136.987 0.108539 136.947 0.0968669 136.91 0.0851962C136.731 0.0312964 136.544 0.00262324 136.357 0H2.13903C1.95157 0.00262324 1.76539 0.0312964 1.58583 0.0851962C1.54499 0.0968669 1.50647 0.108539 1.46913 0.122544C1.29848 0.178685 1.13601 0.25717 0.985959 0.355957C0.971954 0.365294 0.960283 0.378131 0.946278 0.388635C0.812157 0.487847 0.69066 0.603075 0.584486 0.731755C0.558811 0.763266 0.531968 0.792443 0.507459 0.825121C0.39818 0.970811 0.309067 1.13059 0.242534 1.30012C0.242534 1.30945 0.230863 1.31763 0.227362 1.32696C0.223861 1.3363 0.221526 1.37014 0.214524 1.39115C0.163227 1.54541 0.130704 1.70528 0.117657 1.86732C0.117657 1.90466 0.107153 1.94084 0.107153 1.97702C0.107153 2.0132 0.101318 2.0167 0.101318 2.03771V94.9541C0.101318 94.981 0.108321 95.0066 0.109488 95.0335C0.112893 95.107 0.120295 95.1802 0.131662 95.2529C0.140999 95.3124 0.149168 95.3696 0.163173 95.4303C0.181187 95.501 0.203004 95.5708 0.228529 95.6392C0.248369 95.694 0.267042 95.7489 0.291551 95.8014C0.323914 95.8703 0.360152 95.9373 0.400089 96.0022C0.428098 96.0488 0.456108 96.0967 0.487619 96.141C0.532867 96.2029 0.581573 96.2621 0.633503 96.3184C0.672016 96.3604 0.710529 96.4025 0.75021 96.4421C0.774718 96.4643 0.793392 96.4912 0.819067 96.5133C0.844743 96.5355 0.861082 96.5332 0.879755 96.5483C1.03909 96.6767 1.21694 96.7802 1.40727 96.8553C1.44812 96.8716 1.49013 96.881 1.53215 96.8938C1.71626 96.954 1.90806 96.9874 2.10168 96.993C2.11568 96.993 2.12852 97 2.14253 97H2.16937H136.327H136.353C136.367 97 136.38 96.993 136.393 96.993C136.587 96.9875 136.779 96.9541 136.964 96.8938C137.005 96.881 137.046 96.8716 137.081 96.8553C137.271 96.7803 137.45 96.6768 137.609 96.5483C137.628 96.5332 137.651 96.5285 137.67 96.5133C137.689 96.4982 137.714 96.4643 137.739 96.4421C137.781 96.4025 137.819 96.3616 137.855 96.3184C137.907 96.2621 137.956 96.2029 138.001 96.141C138.033 96.0967 138.061 96.05 138.089 96.0022C138.129 95.9373 138.165 95.8703 138.197 95.8014C138.222 95.7489 138.241 95.694 138.26 95.6392C138.286 95.5708 138.308 95.501 138.326 95.4303C138.34 95.3719 138.348 95.3136 138.357 95.2529C138.369 95.1802 138.376 95.107 138.379 95.0335C138.379 95.0066 138.388 94.981 138.388 94.9541L138.395 2.03771ZM48.0049 44.197L67.9129 61.3261C68.2835 61.6448 68.7562 61.8201 69.2451 61.8201C69.7339 61.8201 70.2066 61.6448 70.5773 61.3261L90.4864 44.197L131.931 92.9117H6.56106L48.0049 44.197ZM4.1814 89.4047V6.49009L44.9122 41.5326L4.1814 89.4047ZM93.5791 41.5326L134.31 6.49009V89.4047L93.5791 41.5326ZM130.845 4.08008L89.408 39.7353C89.401 39.7411 89.3916 39.7446 89.3846 39.7516C89.3776 39.7586 89.3706 39.768 89.3625 39.775L69.2456 57.0838L49.1288 39.775C49.1207 39.768 49.1148 39.7586 49.1067 39.7516L49.0833 39.7353L7.6441 4.08008H130.845Z"
        fill="white" />
</svg>