<svg width="107" height="93" viewBox="0 0 107 93" fill="none" xmlns="http://www.w3.org/2000/svg">
<path d="M104.31 1.68641C102.598 0.118151 100.165 -0.404463 97.9604 0.322209L4.41183 31.1598C1.86234 32.0001 0.133454 34.2759 0.00732021 36.9572C-0.118606 39.6386 1.38897 42.0667 3.84807 43.1429L26.9834 53.2652C27.0962 53.7889 33.7377 84.5921 33.9635 85.6392C34.2534 86.9841 34.936 88.1821 36.3821 88.5505C37.8448 88.9231 38.8782 88.1237 39.9695 87.3066C40.5769 86.8519 57.1379 74.4511 57.1379 74.4511L77.209 90.8754C78.378 91.8325 79.8069 92.3316 81.2637 92.3316C81.9574 92.3314 82.6577 92.2184 83.3388 91.9873C85.4513 91.271 87.0173 89.5469 87.5278 87.3756L106.223 7.89212C106.754 5.6323 106.021 3.25467 104.31 1.68641ZM41.4651 59.0655C41.4536 59.0925 41.4424 59.1231 41.4318 59.1596L37.5618 72.6807L33.2429 52.6499L62.9409 36.1496L42.1774 57.8601C41.8503 58.2021 41.6097 58.6156 41.4651 59.0655ZM42.6934 77.4609L44.4511 71.3194L46.1324 65.4451L52.1567 70.375L42.6934 77.4609ZM100.14 6.46121L81.4454 85.9447C81.436 85.9842 81.4235 86.0386 81.3321 86.0696C81.2415 86.1003 81.1975 86.0652 81.1663 86.0395L59.2038 68.0673C59.2032 68.0669 59.2028 68.0663 59.2022 68.0659L49.0265 59.739L81.718 25.5565C82.7857 24.44 82.8771 22.7109 81.9331 21.488C80.9886 20.2649 79.2926 19.9156 77.9425 20.6661L29.5355 47.5613L6.35287 37.418C6.28222 37.3873 6.24336 37.37 6.24898 37.2506C6.25459 37.1315 6.2949 37.118 6.36804 37.0939L99.9166 6.25653C99.9619 6.24178 100.013 6.22474 100.088 6.29331C100.163 6.3623 100.151 6.41467 100.14 6.46121Z" fill="white"/>
</svg>
